<?xml version="1.0" encoding="utf-8"?>
<!-- Generator: Adobe Illustrator 13.0.2, SVG Export Plug-In  -->
<!DOCTYPE svg PUBLIC "-//W3C//DTD SVG 1.1//EN" "http://www.w3.org/Graphics/SVG/1.1/DTD/svg11.dtd" [
	<!ENTITY ns_flows "http://ns.adobe.com/Flows/1.0/">
]>
<svg version="1.1"
	 xmlns="http://www.w3.org/2000/svg" xmlns:xlink="http://www.w3.org/1999/xlink" xmlns:a="http://ns.adobe.com/AdobeSVGViewerExtensions/3.0/"
	 x="0px" y="0px" width="1000px" height="500px" viewBox="0 0 1000 500" enable-background="new 0 0 1000 500" xml:space="preserve"
	>
<defs>
</defs>
<rect id="green_x5F_stripe_1_" y="357.2226562" fill="#5BBF21" width="1000" height="142.7773438"/>
<rect id="white_x5F_stripe_1_" y="142.777832" fill="#FFFFFF" width="1000" height="214.4448242"/>
<rect id="red_x5F_stripe_1_" fill="#E5053A" width="1000" height="142.777832"/>
<path fill="#D8B511" d="M499.3662109,300.7900391c4.140625,5,19.2441406,10.2285156,32.2070312,3.7470703
	c2.0019531,6.0234375,18.1484375,15.9257812,32.5927734,5.3710938C548.4257812,307.6855469,539.90625,302.5,531.203125,290.8330078
	c-8.7041016,7.0371094-22.9628906,0.7412109-26.1113281-2.5917969l0.1855469-40.5556641l20.7402344-20.3706055
	c0-4.378418-13.3154297-16.8256836-26.6425781-16.8286133c-13.3466797-0.003418-26.7036133,12.4438477-26.7036133,16.8286133
	l20.7407227,20.3706055l0.1850586,40.5556641c-3.1479492,3.3330078-17.4072266,9.6289062-26.1113281,2.5917969
	c-8.703125,11.6669922-17.222168,16.8525391-32.9628906,19.0751953
	c14.4448242,10.5546875,30.5908203,0.6523438,32.5927734-5.3710938c12.9628906,6.4814453,28.0585938,1.2529297,32.1987305-3.7470703
	H499.3662109z M499.3144531,240.659668c-5.2128906-8.8886719-15.7172852-12.2333984-15.7172852-12.2333984
	s5.4306641-8.7041016,15.777832-8.7041016c10.3476562,0,15.7167969,8.7041016,15.7167969,8.7041016
	S504.5273438,231.7709961,499.3144531,240.659668L499.3144531,240.659668z"/>
<path id="_x3C_Compound_Path_x3E__1_" fill="#D8B511" d="M499.3520508,321.7587891
	c-19.0180664,0-31.1108398,6.6669922-37.4072266,13.7041016l-5.3701172-5.7402344
	c4.8144531-5.9267578,11.2958984-7.9638672,12.9628906-15.3710938c1.6665039-5.1845703-2.0375977-9.2597656-2.0375977-9.2597656
	S472.8696289,312.5,486.2041016,312.5c8.1484375,0,13.1479492-9.0742188,13.1479492-9.0742188 M499.3520508,303.4257812
	c0,0,4.9995117,9.0742188,13.1479492,9.0742188c13.3339844,0,18.7041016-7.4082031,18.7041016-7.4082031
	s-3.7041016,4.0751953-2.0371094,9.2597656c1.6660156,7.4072266,8.1474609,9.4443359,12.9619141,15.3710938l-5.3691406,5.7402344
	c-6.296875-7.0371094-18.3896484-13.7041016-37.4077148-13.7041016"/>
<polygon fill="#D8B511" points="591.1386719,255.5830078 594.7480469,266.6923828 606.4296875,266.6923828 596.9794922,273.5585938 
	600.5888672,284.6689453 591.1386719,277.8017578 581.6884766,284.6689453 585.2978516,273.5585938 575.8476562,266.6923828 
	587.5292969,266.6923828 "/>
<polygon fill="#D8B511" points="578.9277344,210.0136719 582.5371094,221.1230469 594.21875,221.1230469 584.7685547,227.9892578 
	588.3779297,239.0986328 578.9277344,232.2319336 569.4775391,239.0986328 573.0869141,227.9892578 563.6367188,221.1230469 
	575.3183594,221.1230469 "/>
<polygon fill="#D8B511" points="545.5693359,176.6547852 549.1787109,187.7641602 560.8603516,187.7641602 551.4091797,194.6303711 
	555.0185547,205.7402344 545.5693359,198.8730469 536.1191406,205.7402344 539.7285156,194.6303711 530.2783203,187.7641602 
	541.9599609,187.7641602 "/>
<polygon fill="#D8B511" points="500,164.4443359 503.609375,175.5537109 515.2910156,175.5537109 505.8408203,182.4204102 
	509.4501953,193.5297852 500,186.6630859 490.5498047,193.5297852 494.1591797,182.4204102 484.7089844,175.5537109 
	496.390625,175.5537109 "/>
<polygon fill="#D8B511" points="454.4306641,176.6547852 458.0400391,187.7641602 469.7211914,187.7641602 460.2714844,194.6303711 
	463.8803711,205.7402344 454.4306641,198.8730469 444.9804688,205.7402344 448.5898438,194.6303711 439.1396484,187.7641602 
	450.8212891,187.7641602 "/>
<polygon fill="#D8B511" points="421.0712891,210.0136719 424.6811523,221.1235352 436.3623047,221.1235352 426.9121094,227.9897461 
	430.5214844,239.0991211 421.0712891,232.2324219 411.6210938,239.0991211 415.2304688,227.9897461 405.7807617,221.1235352 
	417.4619141,221.1235352 "/>
<polygon fill="#D8B511" points="408.8613281,255.5830078 412.4707031,266.6923828 424.1518555,266.6923828 414.7016602,273.5585938 
	418.3110352,284.6689453 408.8613281,277.8017578 399.4111328,284.6689453 403.0205078,273.5585938 393.5703125,266.6923828 
	405.2519531,266.6923828 "/>
</svg>
